<svg width="40" height="40" viewBox="0 0 40 40" fill="none" xmlns="http://www.w3.org/2000/svg">
<circle cx="20" cy="20" r="19.5" fill="white" stroke="#0D515C"/>
<path fill-rule="evenodd" clip-rule="evenodd" d="M14.8567 10.3045C16.2922 10.169 18.3981 10 20 10C21.6019 10 23.7078 10.169 25.1433 10.3045C26.4976 10.4323 27.549 11.5101 27.6498 12.8518C27.7924 14.7492 28 17.9078 28 20.2367C28 22.022 27.8781 24.2915 27.7575 26.1035C27.697 27.0119 27.6365 27.8097 27.5911 28.3806C27.5685 28.6661 27.5496 28.8949 27.5363 29.0526L27.5209 29.234L27.5154 29.2966L27.5153 29.2976C27.5153 29.2977 27.5153 29.2977 26.7441 29.2308L27.5153 29.2976C27.4927 29.5553 27.3412 29.7845 27.1122 29.9075C26.8831 30.0305 26.6072 30.0309 26.3779 29.9085L20.1221 26.5713C20.0458 26.5307 19.9542 26.5307 19.8779 26.5713L13.6221 29.9085C13.3928 30.0309 13.1169 30.0305 12.8878 29.9075C12.6588 29.7845 12.5073 29.5554 12.4847 29.2977L13.2559 29.2308C12.4847 29.2977 12.4847 29.2978 12.4847 29.2977L12.4791 29.234L12.4637 29.0526C12.4504 28.8949 12.4315 28.6661 12.4089 28.3806C12.3635 27.8097 12.303 27.0119 12.2425 26.1035C12.1219 24.2915 12 22.022 12 20.2367C12 17.9078 12.2076 14.7492 12.3502 12.8518C12.451 11.5101 13.5024 10.4323 14.8567 10.3045ZM13.9318 27.9971L19.1455 25.2159C19.6791 24.9312 20.3209 24.9312 20.8545 25.2159L26.0682 27.9971C26.1101 27.4598 26.1613 26.7707 26.2124 26.0019C26.3327 24.1962 26.4516 21.9687 26.4516 20.2367C26.4516 17.971 26.2482 14.8633 26.1057 12.9663C26.0606 12.366 25.5938 11.8924 24.9969 11.836C23.5651 11.7009 21.5225 11.5385 20 11.5385C18.4775 11.5385 16.4349 11.7009 15.0031 11.836C14.4062 11.8924 13.9394 12.366 13.8943 12.9663C13.7518 14.8633 13.5484 17.971 13.5484 20.2367C13.5484 21.9687 13.6673 24.1962 13.7876 26.0019C13.8387 26.7707 13.8899 27.4598 13.9318 27.9971Z" fill="#0D515C"/>
</svg>
