<svg width="16" height="16" viewBox="0 0 16 16" fill="none" xmlns="http://www.w3.org/2000/svg">
<path fill-rule="evenodd" clip-rule="evenodd" d="M7.65779 2.35914C4.7306 2.35914 2.35865 4.7292 2.35865 7.65157C2.35865 10.5739 4.7306 12.944 7.65779 12.944C9.11816 12.944 10.4396 12.3547 11.3986 11.4002C12.3619 10.4413 12.9569 9.11627 12.9569 7.65157C12.9569 4.7292 10.585 2.35914 7.65779 2.35914ZM1.33301 7.65157C1.33301 4.16164 4.16527 1.3335 7.65779 1.3335C11.1503 1.3335 13.9826 4.16164 13.9826 7.65157C13.9826 9.21515 13.4135 10.6466 12.4719 11.7495L14.5159 13.7912C14.7163 13.9913 14.7165 14.316 14.5163 14.5164C14.3162 14.7168 13.9915 14.717 13.7911 14.5168L11.7452 12.4732C10.643 13.4063 9.21584 13.9697 7.65779 13.9697C4.16527 13.9697 1.33301 11.1415 1.33301 7.65157Z" fill="#22AD77"/>
</svg>
