<svg width="18" height="18" viewBox="0 0 18 18" fill="none" xmlns="http://www.w3.org/2000/svg">
<g opacity="0.45">
<path fill-rule="evenodd" clip-rule="evenodd" d="M9 2.60953C5.85961 2.60953 3.21051 4.89099 3.42628 7.73227C3.45722 8.13978 3.50348 8.4945 3.56652 8.77599C3.88451 10.1961 4.8827 11.6069 6.007 12.8045C7.12174 13.9919 8.30862 14.9156 8.92192 15.3636C8.97094 15.3994 9.02906 15.3994 9.07808 15.3636C9.69138 14.9156 10.8783 13.9919 11.993 12.8045C13.1173 11.6069 14.1155 10.1961 14.4335 8.77599C14.4965 8.4945 14.5428 8.13978 14.5737 7.73227C14.7895 4.89099 12.1404 2.60953 9 2.60953ZM2.26586 7.81242C1.99057 4.18733 5.34195 1.5 9 1.5C12.6581 1.5 16.0094 4.18733 15.7341 7.81242C15.7012 8.24662 15.6498 8.65706 15.5713 9.0077C15.1901 10.7102 14.0316 12.2963 12.8598 13.5445C11.6784 14.8029 10.4296 15.774 9.78556 16.2444C9.31908 16.5852 8.68092 16.5852 8.21444 16.2444C7.57036 15.774 6.32158 14.8029 5.14018 13.5445C3.96836 12.2963 2.80994 10.7102 2.42871 9.0077C2.3502 8.65706 2.29883 8.24662 2.26586 7.81242Z" fill="#0D515C"/>
<path fill-rule="evenodd" clip-rule="evenodd" d="M9 7.04763C8.46453 7.04763 8.03045 7.46159 8.03045 7.97224C8.03045 8.48289 8.46453 8.89685 9 8.89685C9.53547 8.89685 9.96955 8.48289 9.96955 7.97224C9.96955 7.46159 9.53547 7.04763 9 7.04763ZM6.86699 7.97224C6.86699 6.84882 7.82197 5.93811 9 5.93811C10.178 5.93811 11.133 6.84882 11.133 7.97224C11.133 9.09566 10.178 10.0064 9 10.0064C7.82197 10.0064 6.86699 9.09566 6.86699 7.97224Z" fill="#0D515C"/>
</g>
</svg>
