<svg width="18" height="18" viewBox="0 0 18 18" fill="none" xmlns="http://www.w3.org/2000/svg">
<path fill-rule="evenodd" clip-rule="evenodd" d="M9 2.60853C5.85961 2.60853 3.21051 4.88894 3.42628 7.72891C3.45722 8.13623 3.50348 8.49079 3.56652 8.77215C3.88451 10.1916 4.8827 11.6017 6.007 12.7988C7.12174 13.9856 8.30862 14.9089 8.92192 15.3567C8.97094 15.3925 9.02906 15.3925 9.07808 15.3567C9.69138 14.9089 10.8783 13.9856 11.993 12.7988C13.1173 11.6017 14.1155 10.1916 14.4335 8.77215C14.4965 8.49079 14.5428 8.13623 14.5737 7.72891C14.7895 4.88894 12.1404 2.60853 9 2.60853ZM2.26586 7.80902C1.99057 4.1856 5.34195 1.49951 9 1.49951C12.6581 1.49951 16.0094 4.1856 15.7341 7.80902C15.7012 8.24302 15.6498 8.65327 15.5713 9.00375C15.1901 10.7055 14.0316 12.2909 12.8598 13.5385C11.6784 14.7963 10.4296 15.7669 9.78556 16.2371C9.31908 16.5777 8.68092 16.5777 8.21444 16.2371C7.57036 15.7669 6.32158 14.7963 5.14018 13.5385C3.96836 12.2909 2.80994 10.7055 2.42871 9.00375C2.3502 8.65327 2.29883 8.24302 2.26586 7.80902Z" fill="#22AD77"/>
<path fill-rule="evenodd" clip-rule="evenodd" d="M9 7.04459C8.46453 7.04459 8.03045 7.45836 8.03045 7.96877C8.03045 8.47918 8.46453 8.89295 9 8.89295C9.53547 8.89295 9.96955 8.47918 9.96955 7.96877C9.96955 7.45836 9.53547 7.04459 9 7.04459ZM6.86699 7.96877C6.86699 6.84587 7.82197 5.93557 9 5.93557C10.178 5.93557 11.133 6.84587 11.133 7.96877C11.133 9.09167 10.178 10.002 9 10.002C7.82197 10.002 6.86699 9.09167 6.86699 7.96877Z" fill="#22AD77"/>
</svg>
