<svg width="24" height="24" viewBox="0 0 24 24" fill="none" xmlns="http://www.w3.org/2000/svg">
<mask id="mask0_316_1762" style="mask-type:alpha" maskUnits="userSpaceOnUse" x="0" y="0" width="24" height="24">
<rect width="24" height="24" fill="#22AD77"/>
</mask>
<g mask="url(#mask0_316_1762)">
<path d="M16.2833 11.9518C15.307 11.861 14.7745 13.2233 14.0645 13.5866C12.9108 14.2223 10.7808 11.9518 10.7808 11.9518C10.7808 11.9518 8.562 9.7721 9.0945 8.59142C9.53826 7.86485 10.8695 7.31993 10.7808 6.32089C10.692 5.41268 8.7395 2.14312 7.76325 3.05133C5.63324 5.0494 5.45574 5.86679 5.45574 7.50157C5.36699 10.317 8.917 13.8591 8.917 13.8591C9.272 14.2223 12.3783 17.4919 15.1295 17.4011C16.727 17.4011 17.5258 17.2194 19.4783 15.0397C20.3658 14.0407 17.2595 12.0426 16.2833 11.9518Z" fill="#22AD77"/>
</g>
</svg>
