<svg width="24" height="21" viewBox="0 0 24 21" fill="none" xmlns="http://www.w3.org/2000/svg">
<path d="M23.6294 0.555908C23.3363 0.197388 22.8972 0 22.3929 0C22.1188 0 21.8284 0.0576782 21.5299 0.171753L1.21439 7.92682C0.136268 8.33826 -0.00893449 8.95569 0.000403879 9.28711C0.00974225 9.61853 0.189735 10.2268 1.28947 10.5767C1.29606 10.5787 1.30265 10.5807 1.30924 10.5826L5.52323 11.7885L7.80216 18.3052C8.11289 19.1937 8.81034 19.7455 9.6226 19.7455C10.1347 19.7455 10.6385 19.5309 11.0794 19.1252L13.6859 16.7252L17.4665 19.7693C17.4668 19.7697 17.4674 19.7699 17.4678 19.7703L17.5036 19.7992C17.5069 19.8018 17.5104 19.8045 17.5137 19.8071C17.9339 20.133 18.3926 20.3051 18.8407 20.3053H18.8409C19.7163 20.3053 20.4134 19.6573 20.6164 18.6546L23.9451 2.21832C24.0788 1.55859 23.9667 0.968262 23.6294 0.555908ZM6.93296 11.5594L15.063 7.40607L10.0007 12.7852C9.91776 12.8732 9.85899 12.9811 9.83006 13.0984L8.85392 17.0524L6.93296 11.5594ZM10.1267 18.0906C10.093 18.1216 10.0591 18.1492 10.0252 18.1747L10.9309 14.5067L12.5783 15.8333L10.1267 18.0906ZM22.5669 1.93909L19.2382 18.3755C19.2062 18.5328 19.1038 18.8989 18.8407 18.8989C18.7107 18.8989 18.5473 18.828 18.3802 18.6993L14.0962 15.2499C14.0957 15.2494 14.0949 15.2488 14.0942 15.2485L11.5452 13.1959L18.8659 5.41699C19.1003 5.16797 19.1216 4.78656 18.9163 4.513C18.7109 4.23944 18.3386 4.15338 18.0341 4.30902L5.99345 10.4603L1.72214 9.23822L22.0315 1.48553C22.203 1.41998 22.3228 1.40625 22.3929 1.40625C22.4359 1.40625 22.5125 1.41138 22.5409 1.44635C22.5782 1.49194 22.6258 1.6474 22.5669 1.93909Z" fill="white"/>
</svg>
