<svg width="32" height="18" viewBox="0 0 32 18" fill="none" xmlns="http://www.w3.org/2000/svg">
<path d="M30.4147 6.29071L25.398 1.22219C25.2775 1.10069 25.1342 1.00425 24.9762 0.938439C24.8182 0.872628 24.6488 0.838745 24.4777 0.838745C24.3065 0.838745 24.1371 0.872628 23.9791 0.938439C23.8212 1.00425 23.6778 1.10069 23.5573 1.22219C23.3159 1.46506 23.1803 1.79361 23.1803 2.13608C23.1803 2.47854 23.3159 2.80709 23.5573 3.04996L28.1721 7.70367H1.74063C1.39683 7.70367 1.06712 7.84024 0.824012 8.08334C0.58091 8.32645 0.444336 8.65617 0.444336 8.99996H0.444336C0.444336 9.34376 0.58091 9.67348 0.824012 9.91658C1.06712 10.1597 1.39683 10.2963 1.74063 10.2963H28.2499L23.5573 14.9759C23.4358 15.0964 23.3394 15.2398 23.2736 15.3977C23.2077 15.5557 23.1739 15.7251 23.1739 15.8963C23.1739 16.0674 23.2077 16.2368 23.2736 16.3948C23.3394 16.5528 23.4358 16.6961 23.5573 16.8166C23.6778 16.9381 23.8212 17.0346 23.9791 17.1004C24.1371 17.1662 24.3065 17.2001 24.4777 17.2001C24.6488 17.2001 24.8182 17.1662 24.9762 17.1004C25.1342 17.0346 25.2775 16.9381 25.398 16.8166L30.4147 11.787C31.143 11.0578 31.552 10.0694 31.552 9.03885C31.552 8.00829 31.143 7.01987 30.4147 6.29071Z" fill="white"/>
</svg>
