<svg width="14" height="14" viewBox="0 0 14 14" fill="none" xmlns="http://www.w3.org/2000/svg">
<path d="M7.42772 0.571365C7.42772 0.419812 7.48792 0.274467 7.59509 0.167304C7.70225 0.0601399 7.84759 -6.40095e-05 7.99915 -6.40095e-05C9.51416 0.00159976 10.9666 0.604173 12.0379 1.67545C13.1092 2.74673 13.7118 4.19921 13.7134 5.71422C13.7134 5.86577 13.6532 6.01112 13.5461 6.11828C13.4389 6.22545 13.2935 6.28565 13.142 6.28565C12.9904 6.28565 12.8451 6.22545 12.7379 6.11828C12.6308 6.01112 12.5706 5.86577 12.5706 5.71422C12.5692 4.50222 12.0871 3.34025 11.2301 2.48324C10.3731 1.62622 9.21115 1.14415 7.99915 1.14279C7.84759 1.14279 7.70225 1.08259 7.59509 0.975426C7.48792 0.868262 7.42772 0.722917 7.42772 0.571365V0.571365ZM7.99915 3.42851C8.60535 3.42851 9.18673 3.66932 9.61539 4.09798C10.044 4.52663 10.2849 5.10801 10.2849 5.71422C10.2849 5.86577 10.3451 6.01112 10.4522 6.11828C10.5594 6.22545 10.7047 6.28565 10.8563 6.28565C11.0078 6.28565 11.1532 6.22545 11.2603 6.11828C11.3675 6.01112 11.4277 5.86577 11.4277 5.71422C11.4268 4.80519 11.0653 3.93364 10.4225 3.29086C9.77972 2.64807 8.90818 2.28656 7.99915 2.28565C7.84759 2.28565 7.70225 2.34585 7.59509 2.45302C7.48792 2.56018 7.42772 2.70553 7.42772 2.85708C7.42772 3.00863 7.48792 3.15398 7.59509 3.26114C7.70225 3.3683 7.84759 3.42851 7.99915 3.42851V3.42851ZM13.1951 9.56508C13.5263 9.89714 13.7122 10.347 13.7122 10.8159C13.7122 11.2849 13.5263 11.7347 13.1951 12.0668L12.6751 12.6662C7.99515 17.1468 -3.39341 5.76108 1.01801 1.06622L1.67515 0.494793C2.00759 0.172894 2.4534 -0.00517882 2.91613 -0.000901243C3.37885 0.00337634 3.82129 0.189661 4.14772 0.51765C4.16544 0.535365 5.22429 1.91079 5.22429 1.91079C5.53848 2.24087 5.71338 2.67932 5.71263 3.13502C5.71189 3.59072 5.53556 4.02861 5.22029 4.35765L4.55858 5.18965C4.92478 6.07943 5.46318 6.88808 6.14287 7.56913C6.82255 8.25019 7.63011 8.79023 8.51915 9.15822L9.35629 8.49251C9.68538 8.17749 10.1232 8.00136 10.5787 8.00072C11.0343 8.00009 11.4726 8.17498 11.8026 8.48908C11.8026 8.48908 13.1774 9.54736 13.1951 9.56508ZM12.4089 10.3959C12.4089 10.3959 11.0414 9.34394 11.0237 9.32622C10.906 9.2095 10.7469 9.14401 10.5811 9.14401C10.4154 9.14401 10.2563 9.2095 10.1386 9.32622C10.1231 9.34222 8.97057 10.2605 8.97057 10.2605C8.8929 10.3223 8.80047 10.3629 8.70237 10.3781C8.60428 10.3933 8.5039 10.3827 8.41115 10.3474C7.25941 9.91855 6.21328 9.24721 5.34363 8.37884C4.47397 7.51046 3.80109 6.46533 3.37058 5.31422C3.33241 5.2202 3.31996 5.1177 3.33452 5.01727C3.34909 4.91684 3.39013 4.8221 3.45344 4.74279C3.45344 4.74279 4.37172 3.58965 4.38715 3.57479C4.50387 3.45707 4.56937 3.298 4.56937 3.13222C4.56937 2.96644 4.50387 2.80737 4.38715 2.68965C4.36944 2.67251 3.31744 1.30394 3.31744 1.30394C3.19795 1.1968 3.04201 1.13942 2.88158 1.14356C2.72115 1.14771 2.56838 1.21306 2.45458 1.32622L1.79744 1.89765C-1.42656 5.77422 8.44257 15.0959 11.8397 11.8857L12.3603 11.2857C12.4823 11.1727 12.5555 11.0167 12.5646 10.8506C12.5737 10.6846 12.5178 10.5215 12.4089 10.3959V10.3959Z" fill="white"/>
</svg>
