<svg width="139" height="140" viewBox="0 0 139 140" fill="none" xmlns="http://www.w3.org/2000/svg">
<g clip-path="url(#clip0_347_2544)">
<path fill-rule="evenodd" clip-rule="evenodd" d="M24.4803 70C24.4803 68.2489 25.8998 66.8294 27.6509 66.8294L66.3297 66.8294L66.3297 28.1505C66.3297 26.3995 67.7493 24.98 69.5003 24.98C71.2514 24.98 72.6709 26.3995 72.6709 28.1505L72.6709 66.8294H111.35C113.101 66.8294 114.52 68.2489 114.52 70C114.52 71.7511 113.101 73.1706 111.35 73.1706H72.6709L72.6709 111.849C72.6709 113.601 71.2514 115.02 69.5003 115.02C67.7493 115.02 66.3297 113.601 66.3297 111.849L66.3297 73.1706L27.6509 73.1706C25.8998 73.1706 24.4803 71.7511 24.4803 70Z" fill="#444444" fill-opacity="0.35"/>
</g>
<defs>
<clipPath id="clip0_347_2544">
<rect width="98.2878" height="98.2878" fill="white" transform="translate(0 70) rotate(-45)"/>
</clipPath>
</defs>
</svg>
