<svg width="24" height="19" viewBox="0 0 24 19" fill="none" xmlns="http://www.w3.org/2000/svg">
<path d="M15.6947 8.01514L10.3926 5.11402C10.0877 4.94721 9.72735 4.95343 9.42853 5.1305C9.12952 5.30774 8.95117 5.62085 8.95117 5.96839V11.7208C8.95117 12.0667 9.12842 12.3793 9.42541 12.5567C9.5805 12.6494 9.75244 12.6959 9.92474 12.6959C10.0826 12.6959 10.2408 12.6569 10.3863 12.5785L15.6887 9.72736C16.0035 9.55799 16.1999 9.23078 16.2014 8.87317C16.2027 8.51557 16.0086 8.18689 15.6947 8.01514ZM10.3576 10.9972V6.69788L14.3204 8.86621L10.3576 10.9972Z" fill="white"/>
<path d="M23.8235 4.29034L23.8224 4.27936C23.8021 4.08618 23.5997 2.36792 22.7644 1.49396C21.7989 0.466003 20.7043 0.341125 20.1779 0.28125C20.1343 0.276306 20.0944 0.271729 20.0587 0.266968L20.0167 0.262573C16.8439 0.0318604 12.0522 0.000366211 12.0042 0.000183105L12 0L11.9958 0.000183105C11.9478 0.000366211 7.15613 0.0318604 3.95471 0.262573L3.91241 0.266968C3.87836 0.271545 3.84082 0.275757 3.79999 0.280518C3.2796 0.340576 2.19672 0.465637 1.22845 1.53076C0.432861 2.39539 0.202881 4.07684 0.17926 4.26581L0.176514 4.29034C0.169373 4.37073 0 6.28436 0 8.20551V10.0014C0 11.9225 0.169373 13.8362 0.176514 13.9167L0.177795 13.9288C0.19812 14.1189 0.400269 15.8057 1.23175 16.68C2.13959 17.6735 3.28748 17.805 3.90491 17.8757C4.0025 17.8868 4.08655 17.8964 4.14386 17.9064L4.19934 17.9141C6.03131 18.0884 11.7751 18.1743 12.0187 18.1778L12.026 18.178L12.0333 18.1778C12.0813 18.1776 16.8728 18.1461 20.0457 17.9154L20.0876 17.911C20.1277 17.9057 20.1727 17.9009 20.2222 17.8958C20.7396 17.8409 21.8167 17.7268 22.7715 16.6761C23.5671 15.8113 23.7973 14.1299 23.8207 13.9411L23.8235 13.9166C23.8306 13.836 24.0002 11.9225 24.0002 10.0014V8.20551C24 6.28436 23.8306 4.37091 23.8235 4.29034ZM22.5936 10.0014C22.5936 11.7795 22.4383 13.6108 22.4236 13.7789C22.364 14.2419 22.1213 15.3058 21.7337 15.7271C21.136 16.3846 20.5221 16.4498 20.0739 16.4973C20.0197 16.5029 19.9695 16.5084 19.9241 16.5141C16.8552 16.736 12.2444 16.7701 12.032 16.7714C11.7938 16.7679 6.13403 16.6813 4.35791 16.5163C4.26691 16.5015 4.16858 16.4901 4.06494 16.4784C3.53925 16.4182 2.81964 16.3358 2.2663 15.7271L2.2533 15.7132C1.87244 15.3164 1.63678 14.3216 1.5769 13.7844C1.56573 13.6573 1.40643 11.8044 1.40643 10.0014V8.20551C1.40643 6.42938 1.56134 4.60016 1.57636 4.42859C1.64758 3.88312 1.89478 2.88373 2.2663 2.4798C2.88226 1.80231 3.53174 1.72723 3.9613 1.67761C4.00232 1.67285 4.04059 1.66846 4.07593 1.66388C7.18945 1.44086 11.8334 1.40771 12 1.40643C12.1666 1.40753 16.8089 1.44086 19.8948 1.66388C19.9327 1.66864 19.9741 1.6734 20.0186 1.67853C20.4604 1.72888 21.1282 1.80505 21.741 2.45874L21.7467 2.46478C22.1276 2.86157 22.3632 3.87378 22.4231 4.42181C22.4337 4.54175 22.5936 6.39862 22.5936 8.20551V10.0014Z" fill="white"/>
</svg>
